<svg width="28" height="23" viewBox="0 0 28 23" fill="none" xmlns="http://www.w3.org/2000/svg">
<g clip-path="url(#clip0_43_1834)">
<path d="M6.54182 20.8828C3.17294 20.8828 0.439697 18.1496 0.439697 14.7807C0.439697 12.1195 2.14321 9.85662 4.51625 9.02182C4.51201 8.9074 4.50778 8.79299 4.50778 8.67857C4.50778 4.93255 7.54189 1.89844 11.2879 1.89844C13.8008 1.89844 15.9916 3.26294 17.1654 5.29698C17.8096 4.86475 18.5893 4.61049 19.4241 4.61049C21.67 4.61049 23.4922 6.43265 23.4922 8.67857C23.4922 9.19556 23.3947 9.68712 23.2209 10.1448C25.6957 10.6448 27.5602 12.8356 27.5602 15.4587C27.5602 18.4547 25.1321 20.8828 22.1361 20.8828H6.54182ZM9.88951 11.6873C9.49118 12.0856 9.49118 12.7297 9.88951 13.1238C10.2878 13.5179 10.932 13.5221 11.326 13.1238L12.9787 11.4711V17.1537C12.9787 17.7173 13.4321 18.1708 13.9957 18.1708C14.5593 18.1708 15.0127 17.7173 15.0127 17.1537V11.4711L16.6654 13.1238C17.0637 13.5221 17.7078 13.5221 18.1019 13.1238C18.496 12.7255 18.5003 12.0814 18.1019 11.6873L14.7119 8.29719C14.3135 7.89886 13.6694 7.89886 13.2753 8.29719L9.88527 11.6873H9.88951Z" fill="#40CEEC"/>
</g>
<defs>
<clipPath id="clip0_43_1834">
<path d="M0.439697 0.542419H27.5602V22.2388H0.439697V0.542419Z" fill="white"/>
</clipPath>
</defs>
</svg>
